<?xml version="1.0" encoding="UTF-8" standalone="no"?>
<!DOCTYPE svg PUBLIC "-//W3C//DTD SVG 1.1//EN" "http://www.w3.org/Graphics/SVG/1.1/DTD/svg11.dtd"
[
  <!ENTITY fill_color   "#000000">
  <!ENTITY stroke_color "#FFFFFF">
]>

<svg contentScriptType="text/ecmascript"
     width="55px"
     height="55px"
     xmlns:xlink="http://www.w3.org/1999/xlink"
     baseProfile="full"
     zoomAndPan="magnify"
     contentStyleType="text/css"
     preserveAspectRatio="xMidYMid meet"
     xmlns="http://www.w3.org/2000/svg"
     version="1.1"
     x="0px"
     y="0px">

  <g id="g3"
     transform="matrix(0.75441139,0,0,0.76083966,0.38322137,-2.4015445)">
    <rect
        style="fill:&fill_color;"
        width="38.082928"
        height="24.229769"
        x="2.4849932"
        y="15.682062"
        ry="5.4658284" />
    <rect
        style="fill:&fill_color;"
        width="38.082928"
        height="23.490093"
        x="31.227798"
        y="33.818478"
        ry="5.0564933" />
    <path
        style="fill:&fill_color;"
        d="m 13.631216,38.093163 c 0.103207,9.926378 0.103207,9.312374
           0.103207,9.312374 l 7.327609,-10.028711 z"/>
    <path
        d="M 13.819313,45.313212 V 39.422757 H 7.6602282 c -2.3839069,0
           -4.3246469,-2.064281 -4.3246469,-4.601178 V 21.539504 c 0,-2.537614
           1.9400218,-4.602614 4.3246469,-4.602614 H 35.20193 c 2.383907,0 4.32321,2.065
           4.32321,4.602614 v 13.282075 c 0,2.536897 -1.939303,4.601178 -4.32321,4.601178
           v 3.229299 c 4.163756,0 7.551791,-3.513012 7.551791,-7.830477 V 21.539504 c
           0,-4.317464 -3.387316,-7.831195 -7.551791,-7.831195 H 7.6602282 C
           3.4950351,13.708309 0.107,17.22204 0.107,21.539504 v 13.282075 c 0,4.317465
           3.3880351,7.830477 7.5532282,7.830477 h 2.9305028 v 5.7231 c 0,0.878433
           0.566708,1.674984 1.409946,1.985273 0.239899,0.08835 0.486262,0.132159
           0.728316,0.132159 0.589692,0 1.155681,-0.254264 1.555034,-0.725443 l
           6.011123,-7.114371 h 5.99963 v -3.229299 h -7.497922 l -4.977545,5.889737 z"
        style="fill:&stroke_color;"
        stroke-width="0.5;" />
    <path
        style="fill:&fill_color;"
        d="m 60.002663,55.932042 c -0.124708,10.43245 -0.124708,9.787143
           -0.124708,9.787143 L 52.02376,55.179184 z" />
    <path
        id="hiragana-border"
        d="M 64.226121,31.113918 H 45.580077 v 3.2293 h 18.646044 c 2.383907,0
           4.324647,2.064999 4.324647,4.602614 v 13.279919 c 0,2.537615 -1.940022,4.602614
           -4.324647,4.602614 h -6.158366 v 5.893328 l -4.978264,-5.891892 h -16.40579 c
           -2.383188,0 -4.32321,-2.064999 -4.32321,-4.602613 V 38.945832 c 0,-2.537615
           1.940022,-4.602614 4.32321,-4.602614 v -3.2293 c -4.163756,0 -7.55251,3.513731
           -7.55251,7.831195 v 13.281356 c 0,4.31962 3.388035,7.831914 7.55251,7.831914 h
           14.90678 l 6.013278,7.117962 c 0.398634,0.468306 0.963905,0.721134
           1.552161,0.721134 0.242054,0 0.488417,-0.04238 0.728316,-0.130724
           0.844674,-0.310288 1.412819,-1.108276 1.412819,-1.988145 v -5.720946 h 2.929066
           c 4.165193,0 7.553228,-3.513012 7.553228,-7.831913 V 38.945832 c 0,-4.318183
           -3.388035,-7.831914 -7.553228,-7.831914 z"
        style="fill:&stroke_color;"
        stroke-width="0.5;" />
    <path
        id="romaji"
        stroke-width="0.5;"
        d="m 19.087036,19.050013 -5.711608,15.048278 h 3.350685 l
           1.18082,-3.350686 h 5.626854 l 1.137725,3.350686 h 3.434722 L
           22.47938,19.050013 h -3.392344 z m -0.315317,9.231804 1.960133,-5.521988 h
           0.04166 l 1.896927,5.521988 H 18.77172 z"
        style="fill:&stroke_color;" />
    <path
        id="hiragana"
        stroke-width="0.5;"
        d="m 43.211972,48.98496 c 0,1.649844 1.054406,2.720052
           2.773922,2.720052 2.065717,-0.04381 4.109169,-1.355357 4.774278,-1.947204
           0.665109,-0.593283 2.456451,-2.652536 3.247256,-4.282988 1.000537,0.472616
           1.474589,1.264139 1.474589,2.140417 0,1.895489 -1.825818,2.995146
           -4.739802,3.329137 l 1.413537,1.95726 c 4.563828,-0.597592 6.116707,-2.513912
           6.116707,-5.320874 0,-2.370978 -1.491827,-3.810372 -3.404555,-4.441005
           0.03519,-0.173819 0.09912,-0.355539 0.135033,-0.531513 l -2.593639,-0.461841 c
           -0.01724,0.262165 -0.06967,0.310288 -0.120668,0.573172 -0.931584,-0.05315
           -1.966597,0.08691 -2.29987,0.157299 0,-0.474052 0.01724,-1.738909
           0.0352,-2.194286 2.159091,-0.08763 4.282269,-0.262166 6.248149,-0.560962 l
           -0.228407,-2.561317 c -2.018313,0.403662 -3.966953,0.614831 -5.879681,0.720415
           0.05171,-0.509965 0.12354,-1.951514 0.12354,-1.951514 l -2.738727,-0.209014 c
           -0.03591,0.702459 -0.05171,1.527741 -0.08691,2.24672 -1.212423,0.01724
           -2.649663,0.01724 -3.405991,0 l 0.122822,2.475125 h 0.29736 c 0.720416,0
           1.896926,-0.03663 2.951333,-0.07111 0,0.683784 0.01652,2.158373
           0.03448,2.825637 -2.476562,1.033577 -4.249947,2.948459 -4.249947,5.388391 z m
           8.249941,-3.967672 c -0.369186,0.736217 -0.807325,1.405636 -1.298616,1.965161
           -0.07183,-0.579636 -0.106302,-1.175792 -0.140779,-1.807144 0.192494,-0.03448
           0.964624,-0.158017 1.439395,-0.158017 z m -3.862088,1.018494 c 0.08835,0.983298
           0.193931,1.930684 0.35123,2.790442 -0.455377,0.228407 -0.893516,0.369186
           -1.299334,0.387142 -0.878432,0.0352 -0.878432,-0.525766 -0.878432,-0.772848
           7.18e-4,-0.931584 0.720415,-1.789905 1.826536,-2.404736 z"
        style="fill:&stroke_color;" />
  </g>
</svg>
